<?xml version="1.0" encoding="UTF-8" standalone="no"?>
<svg
   version="1.0"
   width="432pt"
   height="326.93811pt"
   viewBox="0 0 432 326.93811"
   preserveAspectRatio="xMidYMid"
   id="svg2157"
   sodipodi:docname="82points.svg"
   inkscape:version="1.2.2 (b0a84865, 2022-12-01)"
   xmlns:inkscape="http://www.inkscape.org/namespaces/inkscape"
   xmlns:sodipodi="http://sodipodi.sourceforge.net/DTD/sodipodi-0.dtd"
   xmlns="http://www.w3.org/2000/svg"
   xmlns:svg="http://www.w3.org/2000/svg">
  <defs
     id="defs2161" />
  <sodipodi:namedview
     id="namedview2159"
     pagecolor="#ffffff"
     bordercolor="#000000"
     borderopacity="0.25"
     inkscape:showpageshadow="2"
     inkscape:pageopacity="0.0"
     inkscape:pagecheckerboard="0"
     inkscape:deskcolor="#d1d1d1"
     inkscape:document-units="pt"
     showgrid="false"
     showguides="true"
     inkscape:zoom="1.5839325"
     inkscape:cx="879.77234"
     inkscape:cy="128.79337"
     inkscape:window-width="1770"
     inkscape:window-height="1032"
     inkscape:window-x="0"
     inkscape:window-y="40"
     inkscape:window-maximized="0"
     inkscape:current-layer="svg2157">
    <sodipodi:guide
       position="30.736249,244.67809"
       orientation="1,0"
       id="guide3726"
       inkscape:locked="false" />
    <sodipodi:guide
       position="63.738531,270.37281"
       orientation="1,0"
       id="guide3728"
       inkscape:locked="false" />
    <sodipodi:guide
       position="96.848158,265.70634"
       orientation="1,0"
       id="guide3791"
       inkscape:locked="false" />
    <sodipodi:guide
       position="127.61807,96.805381"
       orientation="1,0"
       id="guide3793"
       inkscape:locked="false" />
    <sodipodi:guide
       position="160.71735,86.048121"
       orientation="1,0"
       id="guide3795"
       inkscape:locked="false" />
    <sodipodi:guide
       position="191.25522,82.034361"
       orientation="1,0"
       id="guide3797"
       inkscape:locked="false" />
    <sodipodi:guide
       position="238.60269,101.67394"
       orientation="1,0"
       id="guide3799"
       inkscape:locked="false" />
    <sodipodi:guide
       position="270.91989,99.037051"
       orientation="1,0"
       id="guide3801"
       inkscape:locked="false" />
    <sodipodi:guide
       position="301.60522,90.087151"
       orientation="1,0"
       id="guide3803"
       inkscape:locked="false" />
    <sodipodi:guide
       position="334.52801,91.046061"
       orientation="1,0"
       id="guide3805"
       inkscape:locked="false" />
    <sodipodi:guide
       position="365.85262,91.046061"
       orientation="1,0"
       id="guide3807"
       inkscape:locked="false" />
    <sodipodi:guide
       position="399.73432,83.055111"
       orientation="1,0"
       id="guide3809"
       inkscape:locked="false" />
  </sodipodi:namedview>
  <metadata
     id="metadata2127">
Created by potrace 1.16, written by Peter Selinger 2001-2019
</metadata>
  <g
     id="g4302">
    <g
       transform="matrix(0.03377242,0,0,-0.03377242,-41.658202,343.85797)"
       fill="#000000"
       stroke="none"
       id="g2155"
       style="stroke-width:2.961">
      <path
         d="m 1516,9728 c -127,-4 -233,-11 -238,-16 -19,-19 -29,-778 -39,-3207 -10,-2587 -6,-5570 9,-5838 5,-99 11,-140 21,-146 29,-19 1304,-22 6899,-19 4963,3 5824,5 5831,17 22,36 26,667 26,4596 0,4346 -1,4558 -16,4586 -7,15 -39,18 -241,24 -315,9 -11963,12 -12252,3 z m 700,-152 c 44,-44 45,-83 5,-128 -24,-27 -36,-33 -71,-33 -35,0 -47,6 -71,33 -88,99 43,222 137,128 z m 965,5 c 77,-77 -6,-198 -107,-156 -40,16 -54,41 -54,93 0,33 6,45 31,66 43,36 91,35 130,-3 z m 960,0 c 33,-33 38,-75 14,-120 -17,-33 -33,-41 -85,-41 -49,0 -90,44 -90,97 0,49 45,93 95,93 27,0 44,-8 66,-29 z m 950,0 c 54,-55 34,-140 -39,-161 -101,-31 -171,92 -93,162 43,39 92,38 132,-1 z m 930,19 c 22,-12 49,-61 49,-89 0,-64 -65,-111 -125,-91 -44,15 -65,44 -65,93 0,72 78,120 141,87 z m 950,0 c 24,-13 49,-61 49,-94 0,-14 -13,-40 -29,-58 -60,-68 -162,-29 -165,62 -1,35 4,46 32,71 34,30 77,38 113,19 z m 1370,-18 c 58,-52 36,-148 -38,-167 -95,-24 -163,96 -94,166 40,39 89,40 132,1 z m 940,-1 c 77,-78 -8,-198 -110,-155 -90,38 -55,184 44,184 27,0 44,-8 66,-29 z m 928,15 c 76,-40 62,-148 -23,-176 -44,-14 -80,0 -106,42 -27,43 -20,84 20,121 34,30 67,34 109,13 z m 950,0 c 54,-28 66,-97 26,-144 -63,-75 -167,-34 -167,65 0,29 7,43 31,65 35,31 68,35 110,14 z m 950,0 c 69,-36 64,-146 -8,-176 -61,-25 -126,14 -138,83 -5,32 -1,41 30,72 38,38 70,44 116,21 z m 972,-2 c 36,-18 62,-73 53,-109 -9,-36 -59,-75 -98,-75 -82,0 -130,102 -77,164 32,37 76,44 122,20 z M 1899,9284 c 26,-6 31,-11 31,-35 0,-16 -4,-29 -8,-29 -23,0 -107,-98 -135,-158 -28,-61 -31,-76 -31,-162 0,-152 54,-259 167,-330 44,-28 56,-40 57,-61 0,-20 -7,-30 -31,-39 -46,-19 -125,-104 -154,-165 -56,-120 -56,-240 -1,-362 33,-71 66,-110 132,-155 l 53,-36 -50,-33 c -102,-65 -168,-184 -176,-316 -5,-70 -2,-92 17,-145 42,-116 107,-190 205,-233 l 52,-23 6,-79 c 4,-43 13,-163 22,-268 8,-104 27,-329 41,-500 28,-323 35,-352 72,-329 22,14 31,83 77,579 39,429 60,598 75,603 38,13 133,88 163,130 59,80 79,149 75,262 -3,76 -9,106 -29,150 -31,66 -76,120 -136,161 -23,17 -43,35 -43,42 0,7 16,21 35,31 82,45 155,156 176,270 27,150 -51,328 -178,407 -51,32 -46,68 17,113 106,76 155,178 155,326 0,87 -3,101 -32,161 -21,41 -53,85 -88,118 -45,42 -55,59 -53,80 l 3,26 h 245 245 l 3,-30 c 2,-26 -5,-36 -51,-71 -96,-74 -159,-236 -143,-368 5,-38 22,-87 49,-139 36,-70 52,-89 112,-135 65,-50 71,-58 77,-101 4,-25 21,-266 38,-536 17,-269 40,-614 50,-765 26,-354 80,-1214 80,-1263 0,-39 21,-60 41,-40 5,5 19,156 29,334 22,359 32,503 60,879 11,140 29,390 40,555 56,810 64,896 88,909 9,5 42,34 73,66 82,83 103,142 104,290 0,111 -1,118 -33,182 -23,47 -51,84 -93,122 -51,45 -60,59 -57,83 l 3,28 h 255 255 l 3,-31 c 3,-27 -3,-36 -36,-60 -81,-60 -135,-151 -154,-264 -29,-166 46,-333 189,-423 l 40,-25 6,-89 c 4,-48 14,-191 22,-318 28,-400 84,-1190 104,-1455 11,-140 24,-347 30,-460 19,-338 20,-349 51,-330 18,11 25,101 140,1735 16,237 40,543 52,680 l 21,250 59,54 c 183,167 182,457 -4,625 -48,44 -58,59 -58,85 v 32 l 233,-3 232,-3 3,-28 c 3,-24 -6,-38 -57,-84 -197,-178 -178,-495 39,-643 l 57,-39 6,-108 c 4,-59 16,-241 27,-403 19,-290 41,-624 100,-1535 16,-253 30,-488 30,-522 0,-34 3,-68 6,-77 9,-24 43,-20 48,7 3,12 15,186 26,387 29,498 72,1106 140,1990 l 21,265 27,20 c 60,45 116,111 146,174 29,62 31,73 31,176 0,103 -2,114 -32,179 -23,46 -52,87 -93,126 -72,69 -81,105 -27,115 17,3 131,5 252,3 l 220,-3 3,-27 c 3,-23 -7,-38 -57,-84 -184,-170 -185,-447 -2,-616 33,-31 69,-59 79,-62 21,-7 32,-122 82,-886 17,-250 44,-630 60,-845 16,-214 34,-480 40,-590 15,-287 20,-344 32,-351 34,-21 41,44 98,876 40,587 91,1281 112,1535 l 21,260 58,53 c 182,166 181,460 -2,626 -51,45 -60,59 -57,83 l 3,28 226,3 226,2 7,-31 c 5,-26 2,-35 -16,-47 -82,-55 -145,-156 -168,-267 -32,-155 37,-326 164,-411 66,-43 58,3 91,-544 14,-228 32,-523 40,-655 9,-132 33,-520 55,-862 21,-343 42,-627 45,-633 11,-18 35,-11 39,13 3,12 17,218 31,457 32,527 96,1441 131,1870 25,315 25,315 52,335 144,111 200,225 189,385 -8,116 -38,183 -119,264 -44,44 -68,76 -68,91 0,20 6,23 55,30 30,3 90,3 133,0 l 79,-7 -1,-4164 -1,-4165 -125,3 c -148,4 -161,14 -82,70 55,40 111,119 137,193 25,68 25,212 1,283 -26,75 -87,162 -145,202 -49,34 -50,36 -51,86 0,28 -5,97 -10,155 -6,57 -19,237 -30,399 -11,162 -29,408 -40,545 -10,138 -26,360 -35,495 -9,135 -26,378 -40,540 -13,162 -27,348 -31,412 -4,83 -11,121 -21,129 -28,24 -40,-11 -52,-151 -7,-74 -19,-198 -26,-275 -18,-175 -39,-448 -65,-855 -11,-173 -25,-362 -30,-420 -6,-58 -24,-276 -40,-485 -16,-209 -33,-416 -36,-460 l -7,-80 -67,-65 c -69,-67 -102,-123 -126,-213 -38,-145 9,-303 123,-407 38,-35 53,-56 53,-74 v -26 h -210 -210 v 23 c 0,14 19,39 55,70 39,34 65,69 92,124 37,76 38,79 38,193 0,114 -1,117 -38,193 -28,57 -53,90 -97,129 -57,50 -60,55 -60,99 0,25 -23,343 -50,705 -28,362 -62,810 -76,994 -43,570 -83,973 -96,982 -18,11 -24,10 -35,-5 -6,-6 -29,-219 -52,-472 -42,-466 -56,-648 -111,-1375 -51,-681 -71,-884 -88,-894 -42,-25 -93,-83 -125,-144 -46,-89 -61,-157 -54,-249 9,-120 82,-250 173,-309 14,-10 24,-26 24,-40 v -24 h -230 -230 v 28 c 0,21 11,37 44,65 29,23 57,62 79,106 101,201 53,425 -120,561 l -32,25 -15,220 c -9,121 -23,324 -31,450 -9,127 -26,379 -40,560 -13,182 -29,407 -35,500 -6,94 -20,267 -30,385 -11,118 -24,287 -30,375 -6,88 -13,177 -16,197 -11,76 -48,56 -57,-30 -12,-116 -76,-830 -82,-912 -3,-47 -12,-186 -20,-310 -9,-124 -24,-331 -35,-460 -11,-129 -29,-363 -40,-520 -11,-157 -25,-325 -30,-373 l -10,-88 -64,-62 c -178,-176 -185,-439 -15,-606 38,-37 49,-55 49,-80 v -31 h -205 -205 v 23 c 0,15 13,33 40,53 50,36 112,126 136,196 27,80 25,216 -4,293 -29,77 -81,148 -136,186 l -43,31 -6,116 c -3,65 -15,232 -26,372 -27,331 -46,595 -76,1020 -34,481 -95,1180 -106,1208 -11,28 -37,28 -49,0 -10,-26 -83,-827 -135,-1488 -19,-245 -37,-474 -40,-510 -2,-36 -17,-211 -31,-389 l -27,-325 -59,-55 c -187,-173 -183,-489 8,-641 33,-26 44,-42 44,-62 v -28 h -137 c -76,0 -182,3 -235,7 -89,5 -98,8 -98,26 0,11 27,48 59,83 76,81 102,146 109,271 8,155 -45,275 -158,361 l -45,34 -7,82 c -3,44 -18,241 -32,436 -15,195 -35,465 -46,600 -11,135 -27,360 -35,500 -9,140 -22,332 -30,425 -8,94 -19,233 -25,310 -6,77 -15,191 -20,254 -9,118 -19,147 -44,121 -19,-20 -76,-624 -116,-1230 -11,-173 -29,-421 -40,-550 -10,-129 -24,-305 -30,-390 -16,-232 -39,-511 -45,-545 -3,-20 -17,-38 -40,-54 -47,-32 -120,-144 -141,-215 -26,-95 -17,-216 25,-300 18,-37 54,-88 82,-115 38,-37 49,-55 49,-80 v -31 h -200 c -152,0 -202,3 -204,13 -2,6 -9,100 -15,207 -7,107 -25,380 -41,605 -43,598 -57,790 -90,1285 -17,245 -42,576 -55,735 -13,160 -29,371 -36,470 -11,177 -17,205 -45,205 -22,0 -31,-35 -38,-145 -4,-55 -23,-293 -42,-530 -19,-236 -48,-619 -64,-850 -35,-483 -66,-897 -80,-1070 -22,-264 -60,-813 -60,-862 v -53 h -101 -102 l 7,878 c 15,2088 18,4365 7,5855 -6,868 -9,1583 -6,1588 7,10 175,12 224,3 z m 6104,-4 h 57 v -35 c 0,-19 -3,-35 -8,-35 -18,0 -104,-95 -127,-140 -97,-192 -52,-416 108,-535 29,-22 53,-40 55,-41 6,-3 45,-527 107,-1454 8,-124 26,-378 40,-565 13,-187 28,-404 31,-482 7,-148 12,-170 36,-160 10,3 17,28 22,74 14,147 57,717 81,1068 34,502 70,980 96,1275 l 22,245 59,54 c 155,141 181,377 62,557 -19,28 -52,64 -74,79 -35,24 -40,33 -40,66 v 39 h 240 240 v -30 c 0,-24 -14,-44 -69,-97 -52,-53 -73,-82 -91,-128 -44,-119 -43,-242 4,-348 28,-63 107,-154 160,-182 28,-15 35,-26 40,-59 9,-67 108,-1477 141,-2021 37,-614 37,-611 69,-599 14,5 17,37 56,599 26,372 35,516 65,990 24,372 39,591 66,940 10,125 13,142 32,155 226,157 249,480 47,663 -49,44 -60,60 -60,86 v 31 l 233,-2 232,-3 3,-30 c 2,-26 -5,-37 -52,-78 -133,-115 -177,-329 -101,-495 25,-55 127,-165 162,-176 17,-5 21,-25 31,-154 13,-152 51,-709 77,-1122 8,-129 26,-397 40,-595 13,-198 29,-457 36,-575 11,-210 19,-248 46,-232 14,9 21,79 78,842 19,256 40,521 45,590 6,69 19,265 30,435 11,171 29,420 41,555 19,225 22,246 42,263 68,56 113,109 140,167 26,54 32,80 35,156 3,64 0,107 -12,146 -21,75 -87,172 -141,210 -39,28 -46,37 -43,63 l 3,30 253,3 252,2 v -33 c 0,-28 -9,-41 -53,-79 -188,-162 -180,-487 16,-637 88,-67 83,-58 90,-172 7,-115 56,-817 87,-1259 21,-293 37,-540 65,-1000 10,-152 21,-270 27,-278 29,-34 37,12 58,323 11,171 32,463 45,650 14,187 39,545 55,795 17,250 35,507 40,570 6,63 13,164 17,223 l 6,108 42,29 c 178,123 219,396 86,581 -22,30 -58,68 -80,83 -34,24 -41,34 -41,62 v 34 h 204 c 251,0 266,-2 266,-42 0,-23 -11,-40 -50,-75 -154,-138 -184,-375 -68,-544 18,-27 60,-70 93,-95 l 61,-45 17,-207 c 22,-257 39,-496 77,-1102 17,-261 39,-601 50,-755 10,-154 22,-346 26,-428 5,-94 12,-154 20,-165 34,-47 41,6 94,728 17,228 35,469 40,535 5,66 19,248 30,405 44,613 61,838 71,919 l 10,83 54,50 c 67,61 112,149 128,247 21,136 -23,262 -125,365 -50,50 -59,63 -56,90 l 3,31 h 227 c 124,0 229,-3 232,-6 5,-5 23,-230 63,-771 l 6,-88 h -67 c -45,0 -66,-4 -67,-12 -7,-63 5,-745 12,-753 6,-5 49,-10 97,-10 h 87 l 3,-52 3,-52 -98,-3 -98,-3 v -385 -385 l 127,-3 126,-3 6,-47 c 6,-48 11,-103 46,-547 26,-319 29,-340 54,-340 28,0 33,18 45,155 7,69 16,170 22,225 5,55 20,201 32,325 l 23,225 149,5 150,5 3,379 c 2,297 -1,381 -10,388 -7,4 -62,8 -121,8 h -108 l 3,53 3,52 110,5 110,5 6,30 c 8,39 11,698 3,719 -5,13 -23,16 -96,16 h -90 l 6,58 c 3,31 15,176 26,322 20,260 24,315 36,425 l 5,55 h 116 116 l -9,-1197 c -9,-1180 -12,-5297 -6,-6508 l 4,-620 h -147 c -121,-1 -148,2 -153,14 -3,9 4,21 19,30 59,39 102,89 137,159 37,75 37,77 37,196 0,115 -2,124 -31,187 -36,76 -87,137 -138,164 -34,19 -36,22 -35,70 0,47 3,52 42,80 50,36 97,104 128,183 30,76 31,202 1,284 -26,71 -71,138 -120,177 -20,17 -47,39 -59,48 -20,17 -24,38 -47,303 -14,157 -32,380 -41,495 -25,336 -67,808 -91,1043 -7,62 -24,87 -44,66 -5,-5 -18,-137 -29,-294 -18,-244 -44,-567 -91,-1105 -13,-154 -39,-401 -46,-443 -5,-26 -14,-36 -51,-52 -60,-26 -153,-123 -186,-192 -94,-198 -35,-423 141,-535 69,-44 71,-71 7,-108 -144,-85 -233,-272 -207,-433 19,-112 93,-230 177,-282 19,-12 35,-28 35,-36 0,-11 -27,-14 -148,-14 -82,0 -183,-3 -224,-6 -73,-7 -75,-6 -81,17 -5,20 4,34 49,79 32,31 68,82 87,119 31,63 32,71 32,186 0,110 -2,125 -27,178 -36,76 -76,126 -127,157 -40,24 -40,26 -40,80 0,53 2,56 42,85 108,79 162,203 155,358 -6,146 -67,254 -180,324 -68,42 -61,11 -88,358 -34,422 -69,839 -85,1000 -8,83 -19,229 -25,325 -13,214 -16,236 -37,244 -28,11 -40,-12 -46,-91 -4,-43 -15,-181 -27,-308 -11,-126 -42,-500 -70,-830 -27,-330 -52,-614 -55,-630 -4,-22 -15,-36 -42,-50 -91,-49 -167,-153 -198,-272 -41,-157 16,-331 137,-421 45,-34 48,-39 48,-80 0,-42 -4,-48 -68,-107 -133,-124 -181,-280 -132,-436 25,-84 66,-146 129,-199 35,-29 51,-51 51,-67 v -23 h -225 -225 l 1,23 c 0,14 15,33 42,52 92,67 147,177 154,310 8,140 -55,276 -163,356 -51,37 -54,42 -53,82 0,39 4,44 47,73 65,42 118,116 143,197 17,56 20,87 17,170 -3,88 -8,110 -33,161 -35,70 -115,154 -171,179 l -40,18 -17,182 c -10,100 -35,396 -57,657 -22,261 -42,495 -45,520 -3,25 -14,153 -26,285 -11,132 -24,244 -29,249 -5,5 -15,6 -23,3 -17,-6 -21,-38 -42,-297 -8,-102 -22,-248 -30,-325 -17,-167 -39,-414 -60,-695 -9,-113 -24,-287 -33,-386 l -17,-182 -65,-43 c -74,-50 -130,-119 -162,-199 -33,-82 -32,-231 1,-319 25,-66 113,-174 152,-186 16,-5 19,-16 19,-58 0,-50 -2,-54 -51,-96 -124,-107 -176,-274 -134,-434 21,-82 50,-133 106,-189 39,-39 49,-56 47,-77 l -3,-26 -207,-3 -208,-2 v 26 c 0,18 15,39 53,74 38,35 64,70 88,122 33,70 34,78 34,188 0,108 -2,119 -32,182 -32,68 -101,153 -133,163 -14,5 -18,23 -24,113 -4,59 -18,244 -31,412 -14,168 -45,589 -70,935 -41,569 -85,1113 -101,1237 -4,26 -13,53 -21,59 -34,29 -40,-5 -78,-446 -34,-399 -53,-635 -135,-1680 -17,-214 -35,-438 -40,-497 l -10,-106 -65,-65 c -76,-76 -112,-146 -128,-248 -21,-140 23,-270 125,-364 41,-39 58,-61 58,-79 v -26 h -225 c -213,0 -225,1 -225,19 0,10 17,30 40,45 22,14 57,48 79,76 103,130 118,319 37,477 -22,43 -106,133 -149,158 -18,11 -17,0 -52,495 -9,118 -29,386 -45,595 -16,209 -36,495 -45,635 -9,140 -20,302 -26,360 -11,118 -49,605 -49,633 0,20 -27,34 -40,21 -9,-9 -67,-619 -90,-939 -6,-88 -18,-243 -26,-345 -8,-102 -32,-417 -54,-700 -63,-808 -56,-742 -88,-765 -120,-86 -191,-242 -178,-392 9,-116 38,-177 123,-262 113,-114 117,-111 -157,-111 h -230 v 28 c 0,20 8,32 29,45 16,9 46,40 66,67 99,134 112,320 33,474 -24,47 -103,133 -129,141 -16,5 -19,16 -19,63 0,55 1,57 54,107 64,62 102,132 122,226 33,160 -41,342 -174,428 l -49,31 -12,147 c -6,82 -27,346 -47,588 -19,242 -47,598 -63,791 -15,193 -31,356 -35,362 -4,7 -16,12 -26,12 -24,0 -24,1 -60,-450 -35,-423 -94,-1123 -112,-1307 l -11,-122 -58,-36 c -59,-36 -130,-108 -156,-158 -8,-16 -23,-61 -34,-100 l -20,-72 6,1039 c 3,572 5,2164 5,3539 v 2500 l 53,-7 c 28,-3 78,-6 110,-6 z m 1420,-10 c 7,-28 0,-29 -68,-9 l -60,17 55,4 c 30,2 58,5 61,6 4,1 9,-7 12,-18 z m -7388,-5 c -27,-8 -51,-14 -52,-15 -2,0 -3,7 -3,15 0,12 12,15 53,14 h 52 z m 295,0 c 0,-12 -7,-14 -27,-9 -75,19 -79,22 -25,23 40,1 52,-2 52,-14 z m 665,0 c -47,-16 -75,-18 -75,-7 0,17 15,22 64,21 l 51,-1 z m 305,0 c 0,-18 -21,-18 -75,0 l -40,13 58,1 c 44,1 57,-2 57,-14 z m 667,-2 c -58,-15 -75,-14 -62,6 3,6 32,11 63,10 l 57,-1 z m 313,-4 c 0,-17 -4,-19 -22,-13 -13,4 -45,13 -73,20 l -50,12 73,1 c 66,1 72,-1 72,-20 z m 660,16 c 0,-2 -18,-9 -41,-15 -22,-6 -47,-14 -55,-17 -9,-3 -14,2 -14,16 0,19 6,21 55,21 30,0 55,-2 55,-5 z m 260,-10 c 0,-18 -23,-18 -70,0 l -35,13 53,1 c 40,1 52,-2 52,-14 z m 700,6 c -24,-14 -100,-24 -100,-14 0,18 14,23 64,23 34,-1 46,-4 36,-9 z m 280,-5 c 0,-23 -11,-24 -75,-5 l -60,17 68,1 c 52,1 67,-2 67,-13 z m 610,-6 c -30,-11 -56,-20 -57,-20 -2,0 -3,9 -3,20 0,18 6,20 58,19 h 57 z m 314,5 c 7,-19 -6,-19 -64,-1 l -45,15 h 51 c 37,1 53,-3 58,-14 z m 1104,10 c -2,-3 -26,-11 -51,-19 -44,-13 -47,-13 -47,5 0,16 8,19 52,19 28,0 49,-2 46,-5 z m 275,-15 c -4,-16 -10,-19 -27,-14 -11,4 -43,13 -71,20 l -50,12 77,1 c 72,1 76,0 71,-19 z m 641,6 c -23,-7 -46,-16 -53,-20 -7,-5 -11,1 -11,13 0,19 6,21 53,20 h 52 z m 936,0 c -77,-29 -80,-29 -80,-7 0,19 6,21 58,20 h 57 z m 290,-1 c 0,-13 -7,-15 -37,-9 -73,13 -81,23 -20,23 45,1 57,-2 57,-14 z m 685,6 c -11,-5 -35,-12 -52,-15 -26,-6 -33,-4 -33,8 0,13 11,16 53,15 36,0 46,-3 32,-8 z m 279,-7 c 5,-13 1,-14 -27,-8 -65,14 -75,23 -26,23 34,1 49,-3 53,-15 z m 676,12 c 0,-3 -23,-11 -52,-20 -39,-11 -54,-12 -60,-4 -3,7 -4,16 -2,20 5,8 114,12 114,4 z m 260,-15 c 0,-18 -3,-18 -47,-5 -72,21 -72,22 -10,23 50,1 57,-1 57,-18 z M 2305,8509 c -7,-11 -36,-12 -62,-2 -14,6 -10,9 17,13 39,7 53,3 45,-11 z m -245,1 c 0,-5 -9,-10 -20,-10 -11,0 -20,5 -20,10 0,6 9,10 20,10 11,0 20,-4 20,-10 z m 2186,-445 c -14,-204 -37,-541 -51,-750 -35,-534 -64,-943 -75,-1060 -5,-55 -10,-116 -10,-135 -3,-76 -10,-2 -30,305 -11,176 -27,397 -35,490 -8,94 -19,247 -25,340 -6,94 -20,298 -30,455 -11,157 -24,374 -30,484 -6,109 -13,215 -16,236 l -6,37 63,-14 c 68,-14 168,-10 229,11 32,10 35,10 38,-9 2,-12 -8,-187 -22,-390 z m 1929,392 c -2,-7 -9,-91 -15,-187 -6,-96 -20,-296 -30,-445 -11,-148 -31,-450 -45,-670 -35,-558 -73,-1086 -79,-1092 -1,-1 -8,97 -15,220 -7,122 -16,267 -21,322 -16,179 -59,799 -90,1305 -16,272 -32,507 -34,521 -3,15 -3,29 0,31 2,3 28,-1 57,-9 57,-15 167,-10 227,11 39,14 51,12 45,-7 z m 2255,-609 c -22,-320 -58,-837 -80,-1148 -22,-311 -40,-573 -40,-583 0,-10 -4,-15 -10,-12 -5,3 -10,35 -10,70 0,35 -4,119 -10,187 -17,210 -72,1032 -110,1643 -6,88 -15,227 -21,309 -5,81 -8,150 -6,152 2,3 17,-1 33,-7 41,-16 201,-14 249,4 39,14 40,14 43,-8 2,-13 -15,-286 -38,-607 z m 1908,515 c -4,-59 -26,-378 -48,-708 -22,-330 -54,-764 -70,-965 -16,-201 -32,-417 -36,-480 -4,-69 -10,-107 -15,-95 -4,11 -12,119 -18,240 -6,121 -20,348 -31,505 -11,157 -35,535 -55,840 -19,305 -39,602 -44,660 -5,58 -7,107 -6,108 2,2 21,-2 42,-9 49,-16 187,-14 238,4 22,7 42,12 45,11 3,-1 2,-51 -2,-111 z m 1908,50 c -4,-38 -11,-138 -16,-223 -6,-85 -17,-249 -25,-365 -8,-115 -29,-403 -45,-640 -17,-236 -42,-572 -55,-745 -14,-173 -25,-326 -25,-339 0,-13 -2,-22 -4,-20 -5,4 -30,368 -61,854 -8,138 -22,349 -30,470 -8,121 -26,398 -40,615 -14,217 -27,408 -30,424 -4,24 -2,27 13,21 69,-27 198,-27 272,1 19,7 39,13 44,13 4,1 5,-29 2,-66 z m 1191,-37 c 10,-10 11,-644 1,-668 -7,-17 -33,-18 -347,-18 h -340 l -5,33 c -3,17 -8,172 -11,344 l -6,312 53,4 c 92,8 646,2 655,-7 z M 1528,7745 c 53,-61 13,-155 -66,-155 -85,0 -124,100 -62,162 27,26 36,30 68,25 22,-4 46,-17 60,-32 z m 12317,21 c 68,-29 80,-113 23,-161 -40,-34 -82,-33 -119,4 -50,50 -37,130 24,156 40,18 32,17 72,1 z M 2307,7744 c -3,-3 -12,-4 -19,-1 -8,3 -5,6 6,6 11,1 17,-2 13,-5 z m 11141,-583 c 1,-184 -2,-339 -6,-343 -12,-12 -465,-22 -594,-13 l -108,7 v 344 344 l 353,-2 352,-3 z M 2250,6961 c -1,-142 -78,-1021 -91,-1036 -5,-5 -9,-1 -9,12 0,11 -11,143 -24,294 -19,212 -46,650 -46,742 0,8 25,12 85,13 l 85,1 z M 1560,5129 c 0,-21 -93,-180 -100,-172 -4,4 -28,46 -53,93 l -45,85 50,93 51,93 48,-90 c 27,-50 49,-96 49,-102 z m 12300,90 51,-91 -48,-85 c -27,-47 -52,-86 -56,-87 -4,0 -30,40 -57,89 l -48,91 50,87 c 27,48 51,87 53,87 2,0 27,-41 55,-91 z M 9264,4090 c 9,-107 22,-278 30,-380 9,-102 34,-484 56,-850 22,-366 47,-738 55,-826 8,-89 15,-187 15,-218 0,-50 -2,-57 -17,-52 -89,27 -251,25 -326,-3 -26,-10 -27,-10 -27,27 0,20 9,150 20,287 38,475 59,761 70,930 23,376 61,859 90,1165 5,52 10,104 11,115 2,47 9,-12 23,-195 z m 1901,-95 c 25,-268 36,-392 56,-660 5,-77 19,-243 29,-370 11,-126 22,-261 25,-300 l 6,-70 h -145 -146 v 25 c 0,14 7,93 15,175 8,83 24,276 35,430 11,154 36,451 55,659 19,209 36,389 36,400 2,20 2,20 5,1 2,-11 15,-141 29,-290 z M 3145,3855 c 14,-170 34,-456 45,-635 43,-699 61,-974 80,-1193 27,-307 31,-277 -32,-261 -70,19 -202,18 -267,-2 -29,-8 -55,-13 -58,-10 -3,3 4,112 16,243 22,243 45,577 81,1148 22,353 41,585 70,895 11,113 21,216 21,230 3,47 19,-104 44,-415 z m 1920,130 c 9,-104 22,-264 30,-355 8,-91 23,-325 35,-520 28,-496 48,-794 70,-1089 11,-140 20,-258 20,-261 0,-4 -23,-1 -52,6 -69,18 -190,18 -261,-1 -32,-8 -61,-15 -64,-15 -6,0 -4,32 17,270 6,63 35,473 65,910 30,437 63,883 74,990 11,107 23,236 27,285 l 8,90 8,-60 c 4,-33 15,-145 23,-250 z m 1894,-30 c 28,-353 54,-743 86,-1255 14,-228 34,-520 45,-649 26,-304 26,-295 -4,-287 -106,27 -274,24 -329,-6 -10,-5 -20,-8 -23,-6 -2,3 5,107 16,234 25,290 65,842 85,1179 21,359 35,540 77,990 15,168 21,145 47,-200 z m 6145,-5 c 14,-157 33,-391 41,-520 17,-252 42,-620 54,-762 l 7,-88 -41,8 c -22,4 -84,7 -138,7 -80,0 -97,3 -97,15 0,9 9,103 20,210 10,107 28,328 40,490 11,162 25,336 30,385 5,50 17,200 26,334 10,137 21,236 25,225 4,-10 19,-147 33,-304 z M 1509,2716 c 48,-25 63,-83 36,-137 -28,-53 -95,-64 -144,-23 -26,22 -31,33 -31,71 0,36 6,50 29,74 33,32 67,37 110,15 z m 12341,-1 c 89,-46 54,-186 -47,-185 -60,1 -93,38 -93,105 0,27 8,44 29,66 33,33 67,37 111,14 z M 8358,2550 c 112,-26 213,-107 260,-207 24,-51 27,-70 26,-158 0,-79 -5,-112 -23,-157 -31,-79 -98,-150 -179,-190 -63,-31 -72,-33 -177,-33 -98,0 -116,3 -167,27 -117,54 -194,157 -219,292 -33,180 97,382 276,426 44,11 154,11 203,0 z m 2962,-21 c 72,-34 132,-93 172,-171 31,-59 32,-69 32,-168 1,-140 -22,-200 -108,-286 -83,-83 -146,-107 -276,-107 -147,0 -249,48 -332,157 -55,74 -85,204 -68,297 28,145 123,259 250,300 14,5 81,7 150,6 111,-2 131,-5 180,-28 z m 952,-2 c 75,-37 160,-128 185,-199 27,-78 24,-214 -7,-293 -31,-79 -104,-156 -189,-198 -61,-30 -72,-32 -171,-32 -97,0 -110,2 -170,31 -119,57 -197,158 -221,288 -15,85 8,199 57,277 33,53 109,116 168,139 43,17 70,20 171,17 108,-2 126,-5 177,-30 z m 898,17 c 101,-30 178,-99 229,-204 23,-49 26,-67 26,-160 0,-99 -2,-110 -32,-171 -140,-285 -577,-282 -711,5 -98,208 14,471 228,537 46,14 204,10 260,-7 z M 7884,1973 c 24,-47 72,-99 123,-134 38,-27 43,-34 43,-69 0,-34 -5,-42 -44,-71 -80,-57 -146,-160 -165,-261 -6,-27 -9,91 -9,317 0,356 0,359 17,305 10,-30 25,-70 35,-87 z m 5356,-198 c 0,-8 -4,-15 -9,-15 -13,0 -22,16 -14,24 11,11 23,6 23,-9 z m -9045,-36 c 123,-23 207,-86 262,-196 37,-74 38,-81 38,-182 0,-99 -2,-110 -32,-172 -71,-145 -193,-219 -357,-219 -197,0 -334,97 -388,273 -26,85 -21,194 11,279 24,62 91,144 146,178 69,42 209,60 320,39 z m -913,-31 c 125,-58 205,-172 215,-310 13,-176 -71,-324 -225,-396 -51,-24 -68,-27 -162,-26 -84,0 -116,4 -162,22 -78,31 -159,112 -201,199 -29,62 -32,77 -32,163 0,86 3,102 31,160 76,161 187,223 385,216 77,-2 106,-8 151,-28 z m 1894,10 c 85,-28 171,-104 210,-186 36,-75 44,-200 20,-288 -60,-210 -286,-323 -507,-254 -198,61 -314,287 -249,481 34,100 80,161 160,215 83,56 250,70 366,32 z m 1005,-9 c 195,-92 270,-328 169,-535 -36,-73 -100,-136 -178,-172 -52,-24 -68,-27 -172,-27 -95,0 -125,4 -170,23 -74,29 -150,105 -192,189 -62,127 -47,308 35,415 83,108 160,139 332,136 106,-3 127,-6 176,-29 z m 900,9 c 52,-17 76,-33 131,-88 59,-59 69,-75 88,-139 30,-97 25,-222 -12,-302 -33,-72 -113,-153 -185,-187 -53,-24 -69,-27 -173,-27 -104,0 -121,3 -172,27 -116,54 -205,169 -227,293 -21,116 19,243 105,336 79,83 142,107 285,108 72,1 110,-4 160,-21 z m 1274,11 c 86,-16 143,-46 206,-109 73,-73 102,-143 102,-255 1,-178 -90,-315 -250,-375 -79,-29 -219,-25 -308,10 -75,29 -156,108 -193,187 -24,52 -27,69 -27,168 0,98 3,116 26,166 37,78 90,133 163,169 96,47 176,58 281,39 z m 1068,-22 c 154,-71 223,-191 215,-372 -3,-79 -8,-101 -36,-158 -56,-112 -161,-187 -298,-210 -137,-24 -295,35 -375,140 -138,178 -107,449 65,572 69,49 121,61 256,58 101,-2 122,-6 173,-30 z m 910,14 c 20,-7 65,-33 99,-59 183,-138 195,-435 24,-589 -90,-81 -178,-109 -307,-100 -183,12 -320,133 -358,316 -13,60 -8,119 16,196 39,122 132,209 258,241 58,15 211,12 268,-5 z m 892,8 c 117,-22 217,-95 271,-201 36,-68 45,-205 21,-289 -33,-114 -126,-209 -243,-250 -78,-27 -222,-23 -305,10 -156,60 -259,249 -229,420 20,116 78,207 165,260 92,56 198,73 320,50 z m 1020,-19 c 111,-43 200,-151 225,-274 35,-173 -54,-357 -209,-433 -78,-39 -219,-45 -320,-14 -92,28 -176,103 -223,198 -43,89 -51,209 -18,295 47,126 135,211 250,243 78,21 217,14 295,-15 z m 978,1 c 153,-60 245,-237 217,-418 -21,-135 -99,-240 -220,-297 -59,-28 -74,-31 -165,-31 -152,0 -254,44 -333,144 -61,76 -85,149 -85,252 0,76 3,93 33,158 45,97 125,172 213,201 87,28 256,24 340,-9 z M 7892,1133 c 18,-29 56,-73 85,-98 30,-26 53,-55 53,-66 0,-18 -8,-19 -106,-19 h -107 l 6,168 c 4,92 7,169 8,172 0,3 7,-20 15,-50 8,-30 29,-79 46,-107 z M 2206,792 c 51,-41 57,-97 16,-143 -23,-25 -36,-32 -71,-33 -36,-1 -47,4 -72,32 -40,44 -40,93 0,133 35,34 93,39 127,11 z m 974,-7 c 55,-50 42,-133 -25,-161 -68,-28 -135,15 -135,88 0,38 22,75 54,89 28,12 84,4 106,-16 z m 978,-10 c 24,-28 29,-82 12,-116 -17,-30 -68,-52 -106,-45 -87,17 -102,152 -20,187 35,14 89,2 114,-26 z m 945,-5 c 36,-40 35,-80 -2,-122 -24,-27 -36,-33 -70,-33 -79,0 -127,89 -81,148 44,55 106,58 153,7 z m 944,19 c 31,-27 45,-68 33,-103 -37,-114 -190,-88 -190,31 0,34 24,71 54,84 26,11 83,4 103,-12 z m 932,5 c 13,-9 29,-32 37,-50 12,-29 12,-39 1,-66 -19,-45 -40,-60 -86,-62 -70,-1 -118,69 -91,135 22,53 93,75 139,43 z m 1341,1 c 35,-18 50,-43 50,-85 0,-104 -145,-132 -186,-35 -18,45 -10,78 28,110 34,29 66,32 108,10 z m 949,1 c 72,-38 64,-150 -13,-176 -64,-21 -122,15 -133,83 -5,32 -1,41 30,72 38,38 70,44 116,21 z m 967,-20 c 44,-44 45,-83 5,-128 -57,-64 -153,-32 -168,55 -5,32 -1,41 30,72 47,47 86,48 133,1 z m 933,20 c 54,-28 66,-97 26,-144 -47,-56 -117,-51 -155,10 -27,43 -20,84 20,121 34,30 67,34 109,13 z m 968,-21 c 31,-31 35,-40 30,-72 -13,-81 -105,-117 -161,-64 -67,63 -26,169 68,171 19,0 39,-11 63,-35 z m 964,6 c 40,-40 40,-89 0,-133 -76,-85 -209,9 -157,110 20,39 41,51 89,52 29,0 45,-7 68,-29 z"
         id="path2129"
         style="stroke-width:2.961" />
      <path
         d="m 12850,8250 c -11,-11 -20,-27 -20,-35 0,-18 35,-55 53,-55 25,0 50,27 50,55 0,28 -25,55 -50,55 -7,0 -22,-9 -33,-20 z"
         id="path2131"
         style="stroke-width:2.961" />
      <path
         d="m 13267,8252 c -23,-26 -21,-58 5,-76 28,-20 43,-20 62,0 32,31 10,94 -33,94 -10,0 -25,-8 -34,-18 z"
         id="path2133"
         style="stroke-width:2.961" />
      <path
         d="m 13068,8249 c -28,-16 -23,-67 7,-81 19,-9 29,-8 50,6 29,19 32,46 7,69 -21,19 -39,21 -64,6 z"
         id="path2135"
         style="stroke-width:2.961" />
      <path
         d="m 12851,7906 c -17,-20 -10,-67 11,-80 25,-15 72,4 76,31 5,36 -15,63 -47,63 -16,0 -34,-6 -40,-14 z"
         id="path2137"
         style="stroke-width:2.961" />
      <path
         d="m 13062,7908 c -19,-19 -15,-66 7,-78 11,-5 24,-10 30,-10 16,0 51,38 51,54 0,37 -61,61 -88,34 z"
         id="path2139"
         style="stroke-width:2.961" />
      <path
         d="m 13268,7909 c -24,-14 -23,-52 2,-74 26,-24 73,-10 78,22 7,51 -36,78 -80,52 z"
         id="path2141"
         style="stroke-width:2.961" />
      <path
         d="m 12850,7370 c -25,-25 -26,-52 -2,-73 24,-22 55,-21 75,1 23,26 21,58 -5,76 -30,21 -44,20 -68,-4 z"
         id="path2143"
         style="stroke-width:2.961" />
      <path
         d="m 13054,7359 c -17,-19 -17,-23 -3,-47 21,-38 62,-41 85,-8 15,24 15,28 0,51 -20,31 -56,33 -82,4 z"
         id="path2145"
         style="stroke-width:2.961" />
      <path
         d="m 13261,7361 c -16,-29 -14,-46 8,-65 42,-38 108,13 77,59 -19,28 -71,32 -85,6 z"
         id="path2147"
         style="stroke-width:2.961" />
      <path
         d="m 12845,7016 c -19,-28 -9,-58 26,-76 45,-25 94,51 57,88 -21,21 -66,14 -83,-12 z"
         id="path2149"
         style="stroke-width:2.961" />
      <path
         d="m 13266,7021 c -24,-26 -17,-62 16,-80 24,-14 28,-14 47,3 25,23 27,58 5,80 -21,21 -47,20 -68,-3 z"
         id="path2151"
         style="stroke-width:2.961" />
      <path
         d="m 13057,7009 c -18,-25 -11,-56 15,-70 45,-24 91,24 63,67 -19,30 -59,32 -78,3 z"
         id="path2153"
         style="stroke-width:2.961" />
    </g>
    <g
       aria-label="6"
       id="text3562"
       style="font-weight:600;font-size:12px;line-height:1.5;font-family:'Monaspace Krypton Var';-inkscape-font-specification:'Monaspace Krypton Var Semi-Bold';font-variant-ligatures:discretionary-ligatures;font-variant-numeric:oldstyle-nums;stroke-width:5;stroke-linecap:round;stroke-linejoin:round"
       transform="translate(0.1858259,-73.821039)">
      <path
         d="m 27.381362,80.733039 v -4.2 l 2.094,-2.712 h 2.958 l 0.132,0.852 h -2.598 l -1.65,2.142 v 3.498 l 1.344,1.416 h 1.23 l 1.344,-1.416 v -1.206 l -1.05,-0.894 -3.312,0.744 v -0.6 l 3.636,-1.074 1.65,1.506 v 1.944 l -1.83,1.848 h -2.118 z"
         id="path3811" />
    </g>
    <g
       aria-label="6"
       id="text3562-7"
       style="font-weight:600;font-size:12px;line-height:1.5;font-family:'Monaspace Krypton Var';-inkscape-font-specification:'Monaspace Krypton Var Semi-Bold';font-variant-ligatures:discretionary-ligatures;font-variant-numeric:oldstyle-nums;stroke-width:5;stroke-linecap:round;stroke-linejoin:round"
       transform="translate(0.1858259,-73.821039)">
      <path
         d="m 60.561881,80.733039 v -4.2 l 2.094,-2.712 h 2.958 l 0.132,0.852 h -2.598 l -1.65,2.142 v 3.498 l 1.344,1.416 h 1.23 l 1.344,-1.416 v -1.206 l -1.05,-0.894 -3.312,0.744 v -0.6 l 3.636,-1.074 1.65,1.506 v 1.944 l -1.83,1.848 h -2.118 z"
         id="path3814" />
    </g>
    <g
       aria-label="6"
       id="text3562-3"
       style="font-weight:600;font-size:12px;line-height:1.5;font-family:'Monaspace Krypton Var';-inkscape-font-specification:'Monaspace Krypton Var Semi-Bold';font-variant-ligatures:discretionary-ligatures;font-variant-numeric:oldstyle-nums;stroke-width:5;stroke-linecap:round;stroke-linejoin:round"
       transform="translate(0.1858259,-73.821039)">
      <path
         d="m 93.756285,80.733039 v -4.2 l 2.094,-2.712 h 2.958 l 0.132,0.852 h -2.598 l -1.65,2.142 v 3.498 l 1.344,1.416 h 1.23 l 1.344,-1.416 v -1.206 l -1.05,-0.894 -3.312,0.744 v -0.6 l 3.636,-1.074 1.65,1.506 v 1.944 l -1.83,1.848 h -2.118 z"
         id="path3817" />
    </g>
    <g
       aria-label="6"
       id="text3562-8"
       style="font-weight:600;font-size:12px;line-height:1.5;font-family:'Monaspace Krypton Var';-inkscape-font-specification:'Monaspace Krypton Var Semi-Bold';font-variant-ligatures:discretionary-ligatures;font-variant-numeric:oldstyle-nums;stroke-width:5;stroke-linecap:round;stroke-linejoin:round"
       transform="translate(0.1858259,-73.821039)">
      <path
         d="m 124.4927,80.733039 v -4.2 l 2.094,-2.712 h 2.958 l 0.132,0.852 h -2.598 l -1.65,2.142 v 3.498 l 1.344,1.416 h 1.23 l 1.344,-1.416 v -1.206 l -1.05,-0.894 -3.312,0.744 v -0.6 l 3.636,-1.074 1.65,1.506 v 1.944 l -1.83,1.848 h -2.118 z"
         id="path3820" />
    </g>
    <g
       aria-label="6"
       id="text3562-5"
       style="font-weight:600;font-size:12px;line-height:1.5;font-family:'Monaspace Krypton Var';-inkscape-font-specification:'Monaspace Krypton Var Semi-Bold';font-variant-ligatures:discretionary-ligatures;font-variant-numeric:oldstyle-nums;stroke-width:5;stroke-linecap:round;stroke-linejoin:round"
       transform="translate(0.1858259,-73.821039)">
      <path
         d="m 157.5282,80.733039 v -4.2 l 2.094,-2.712 h 2.958 l 0.132,0.852 h -2.598 l -1.65,2.142 v 3.498 l 1.344,1.416 h 1.23 l 1.344,-1.416 v -1.206 l -1.05,-0.894 -3.312,0.744 v -0.6 l 3.636,-1.074 1.65,1.506 v 1.944 l -1.83,1.848 h -2.118 z"
         id="path3823" />
    </g>
    <g
       aria-label="6"
       id="text3562-54"
       style="font-weight:600;font-size:12px;line-height:1.5;font-family:'Monaspace Krypton Var';-inkscape-font-specification:'Monaspace Krypton Var Semi-Bold';font-variant-ligatures:discretionary-ligatures;font-variant-numeric:oldstyle-nums;stroke-width:5;stroke-linecap:round;stroke-linejoin:round"
       transform="translate(0.1858259,-73.821039)">
      <path
         d="m 188.22639,80.733039 v -4.2 l 2.094,-2.712 h 2.958 l 0.132,0.852 h -2.598 l -1.65,2.142 v 3.498 l 1.344,1.416 h 1.23 l 1.344,-1.416 v -1.206 l -1.05,-0.894 -3.312,0.744 v -0.6 l 3.636,-1.074 1.65,1.506 v 1.944 l -1.83,1.848 h -2.118 z"
         id="path3826" />
    </g>
    <g
       aria-label="6"
       id="text3562-54-6"
       style="font-weight:600;font-size:12px;line-height:1.5;font-family:'Monaspace Krypton Var';-inkscape-font-specification:'Monaspace Krypton Var Semi-Bold';font-variant-ligatures:discretionary-ligatures;font-variant-numeric:oldstyle-nums;stroke-width:5;stroke-linecap:round;stroke-linejoin:round"
       transform="translate(0.1858259,-73.821039)">
      <path
         d="m 396.68028,80.733039 v -4.2 l 2.094,-2.712 h 2.958 l 0.132,0.852 h -2.598 l -1.65,2.142 v 3.498 l 1.344,1.416 h 1.23 l 1.344,-1.416 v -1.206 l -1.05,-0.894 -3.312,0.744 v -0.6 l 3.636,-1.074 1.65,1.506 v 1.944 l -1.83,1.848 h -2.118 z"
         id="path3829" />
    </g>
    <g
       aria-label="8"
       id="text3664"
       style="font-weight:600;font-size:12px;line-height:1.5;font-family:'Monaspace Krypton Var';-inkscape-font-specification:'Monaspace Krypton Var Semi-Bold';font-variant-ligatures:discretionary-ligatures;font-variant-numeric:oldstyle-nums;stroke-width:5;stroke-linecap:round;stroke-linejoin:round"
       transform="translate(0.1858259,-73.821039)">
      <path
         d="m 235.81687,81.021039 v -1.782 l 1.5,-1.224 -1.26,-1.224 v -1.44 l 1.572,-1.53 h 2.136 l 1.572,1.53 v 1.44 l -1.26,1.224 1.5,1.224 v 1.782 l -1.812,1.56 h -2.136 z m 3.534,0.798 1.266,-1.092 v -1.254 l -1.266,-1.014 h -1.308 l -1.266,1.014 v 1.254 l 1.266,1.092 z m 0,-4.158 1.068,-1.122 v -0.9 l -1.068,-1.068 h -1.308 l -1.068,1.068 v 0.9 l 1.068,1.122 z"
         id="path3832" />
    </g>
    <g
       aria-label="8"
       id="text3664-6"
       style="font-weight:600;font-size:12px;line-height:1.5;font-family:'Monaspace Krypton Var';-inkscape-font-specification:'Monaspace Krypton Var Semi-Bold';font-variant-ligatures:discretionary-ligatures;font-variant-numeric:oldstyle-nums;stroke-width:5;stroke-linecap:round;stroke-linejoin:round"
       transform="translate(0.1858259,-73.821039)">
      <path
         d="m 267.99134,81.021039 v -1.782 l 1.5,-1.224 -1.26,-1.224 v -1.44 l 1.572,-1.53 h 2.136 l 1.572,1.53 v 1.44 l -1.26,1.224 1.5,1.224 v 1.782 l -1.812,1.56 h -2.136 z m 3.534,0.798 1.266,-1.092 v -1.254 l -1.266,-1.014 h -1.308 l -1.266,1.014 v 1.254 l 1.266,1.092 z m 0,-4.158 1.068,-1.122 v -0.9 l -1.068,-1.068 h -1.308 l -1.068,1.068 v 0.9 l 1.068,1.122 z"
         id="path3835" />
    </g>
    <g
       aria-label="8"
       id="text3664-63"
       style="font-weight:600;font-size:12px;line-height:1.5;font-family:'Monaspace Krypton Var';-inkscape-font-specification:'Monaspace Krypton Var Semi-Bold';font-variant-ligatures:discretionary-ligatures;font-variant-numeric:oldstyle-nums;stroke-width:5;stroke-linecap:round;stroke-linejoin:round"
       transform="translate(0.1858259,-73.821039)">
      <path
         d="m 298.66584,81.021039 v -1.782 l 1.5,-1.224 -1.26,-1.224 v -1.44 l 1.572,-1.53 h 2.136 l 1.572,1.53 v 1.44 l -1.26,1.224 1.5,1.224 v 1.782 l -1.812,1.56 h -2.136 z m 3.534,0.798 1.266,-1.092 v -1.254 l -1.266,-1.014 h -1.308 l -1.266,1.014 v 1.254 l 1.266,1.092 z m 0,-4.158 1.068,-1.122 v -0.9 l -1.068,-1.068 h -1.308 l -1.068,1.068 v 0.9 l 1.068,1.122 z"
         id="path3838" />
    </g>
    <g
       aria-label="8"
       id="text3664-3"
       style="font-weight:600;font-size:12px;line-height:1.5;font-family:'Monaspace Krypton Var';-inkscape-font-specification:'Monaspace Krypton Var Semi-Bold';font-variant-ligatures:discretionary-ligatures;font-variant-numeric:oldstyle-nums;stroke-width:5;stroke-linecap:round;stroke-linejoin:round"
       transform="translate(0.1858259,-73.821039)">
      <path
         d="m 331.25086,81.021039 v -1.782 l 1.5,-1.224 -1.26,-1.224 v -1.44 l 1.572,-1.53 h 2.136 l 1.572,1.53 v 1.44 l -1.26,1.224 1.5,1.224 v 1.782 l -1.812,1.56 h -2.136 z m 3.534,0.798 1.266,-1.092 v -1.254 l -1.266,-1.014 h -1.308 l -1.266,1.014 v 1.254 l 1.266,1.092 z m 0,-4.158 1.068,-1.122 v -0.9 l -1.068,-1.068 h -1.308 l -1.068,1.068 v 0.9 l 1.068,1.122 z"
         id="path3841" />
    </g>
    <g
       aria-label="8"
       id="text3664-9"
       style="font-weight:600;font-size:12px;line-height:1.5;font-family:'Monaspace Krypton Var';-inkscape-font-specification:'Monaspace Krypton Var Semi-Bold';font-variant-ligatures:discretionary-ligatures;font-variant-numeric:oldstyle-nums;stroke-width:5;stroke-linecap:round;stroke-linejoin:round"
       transform="translate(0.1858259,-73.821039)">
      <path
         d="m 363.0148,81.021039 v -1.782 l 1.5,-1.224 -1.26,-1.224 v -1.44 l 1.572,-1.53 h 2.136 l 1.572,1.53 v 1.44 l -1.26,1.224 1.5,1.224 v 1.782 l -1.812,1.56 h -2.136 z m 3.534,0.798 1.266,-1.092 v -1.254 l -1.266,-1.014 h -1.308 l -1.266,1.014 v 1.254 l 1.266,1.092 z m 0,-4.158 1.068,-1.122 v -0.9 l -1.068,-1.068 h -1.308 l -1.068,1.068 v 0.9 l 1.068,1.122 z"
         id="path3844" />
    </g>
  </g>
</svg>
